# xmcd
#
# Track frame offsets: 
#        150
#        19800
#        30310
#        41425
#        58075
#        70360
#        83605
#        98657
#        114705
#        125705
#
# Disc length: 1819 seconds
#
# Revision: 4
# Processed by: cddbd v1.5.2PL0 Copyright (c) Steve Scherf et al.
# Submitted via: ExactAudioCopyFreeDBPlugin 1.0
#
DISCID=7e07190a
DTITLE=Various Artist - Rythm and Blues Christmas Vol 2
DYEAR=2001
DGENRE=Holiday
TTITLE0=The Whispers - This Christmas
TTITLE1=The O'Jays - Christmas Ain't Christmas Without the One You Lov
TTITLE1=e
TTITLE2=Nat King Cole - O Come All Ye Faithful
TTITLE3=Lou Rawls - Have Yourself a Merry Little Christmas
TTITLE4=Lena Horne - Santa Claus is Comin' to Town
TTITLE5=Charles Brown - Merry Christmas, Baby
TTITLE6=Ella Fitzgerald - It Came Upon a Midnight Clear
TTITLE7=Al Green - Feels like Christmas
TTITLE8=Lena Horne - Let It Snow! Let It Snow! Let It Snow!
TTITLE9=Nancy Wilson - What Are You Doing New Year's Eve
EXTD=
EXTT0=
EXTT1=
EXTT2=
EXTT3=
EXTT4=
EXTT5=
EXTT6=
EXTT7=
EXTT8=
EXTT9=
PLAYORDER=
